<svg xmlns="http://www.w3.org/2000/svg" viewBox="0 0 1200 675"><defs><linearGradient id="g" x1="0" y1="0" x2="1" y2="1"><stop stop-color="#0d1712"/><stop offset=".55" stop-color="#17251b"/><stop offset="1" stop-color="#0a0f0c"/></linearGradient></defs><rect width="1200" height="675" fill="url(#g)"/><g stroke="#9cffbd" opacity=".14"><path d="M0 110h1200M0 220h1200M0 330h1200M0 440h1200M0 550h1200"/><path d="M120 0v675M240 0v675M360 0v675M480 0v675M600 0v675M720 0v675M840 0v675M960 0v675M1080 0v675"/></g><circle cx="850" cy="315" r="180" fill="none" stroke="#9cffbd" stroke-width="4" opacity=".55"/><circle cx="850" cy="315" r="75" fill="#9cffbd" opacity=".08"/><path d="M850 105v420M640 315h420" stroke="#9cffbd" opacity=".35"/><g fill="#fff"><text x="95" y="125" font-family="Arial,sans-serif" font-size="30" font-weight="700">AUTISM BASEHUNTING TOOLS</text><text x="95" y="175" font-family="monospace" font-size="20" opacity=".7">SEEDCRACKER · STASH FINDER · RTP · BARITONE</text><text x="95" y="530" font-family="Arial,sans-serif" font-size="25">CLIENT-SIDE TOOLSET</text></g><circle cx="850" cy="315" r="9" fill="#fff"/></svg>